<svg id="Layer_1" data-name="Layer 1" xmlns="http://www.w3.org/2000/svg" viewBox="0 0 640.12 196.82"><defs><style>.cls-1{fill:#ffcb05;}.cls-2{fill:#231f20;}</style></defs><path class="cls-1" d="M444.58,526.12c-.35-.15-.42-.25-.42-.72,0-1.15.1-2.47.12-2.82s.1-.55.28-.55.22.2.22.35a4.22,4.22,0,0,0,.2,1.1c.48,1.57,2.13,2.09,3.5,2.09a2.76,2.76,0,0,0,3-2.69c0-.93-.23-1.85-2.18-3l-1.27-.75c-2.6-1.53-3.45-3-3.45-4.82,0-2.6,2.5-4.28,5.55-4.28a13,13,0,0,1,3.12.35c.2.05.3.13.3.28s-.07.87-.07,2.55c0,.45-.1.67-.28.67s-.22-.12-.22-.37a2.38,2.38,0,0,0-.58-1.4,2.94,2.94,0,0,0-2.45-1c-1.57,0-3,.82-3,2.27,0,1,.35,1.7,2.32,2.8l.9.5c2.9,1.6,3.8,3.22,3.8,5.15a4.54,4.54,0,0,1-2.2,4,6.4,6.4,0,0,1-3.67.87A9.27,9.27,0,0,1,444.58,526.12Z" transform="translate(-179.94 -401.59)"/><path class="cls-1" d="M464.69,511.63l-3.27.08c-1.28,0-1.8.17-2.13.65a2.56,2.56,0,0,0-.37.72c-.05.18-.1.28-.25.28s-.2-.13-.2-.35.42-2.4.47-2.58.13-.4.25-.4.4.18.95.25a19.46,19.46,0,0,0,2.2.1h8.92a9.79,9.79,0,0,0,1.5-.1c.35,0,.53-.1.6-.1s.17.13.17.45,0,2,0,2.58c0,.22-.07.35-.19.35s-.23-.1-.25-.43l0-.22c-.05-.55-.62-1.2-2.6-1.23l-2.77-.05v8.6c0,1.95,0,3.62.12,4.55.08.59.2,1,.85,1.09a8.23,8.23,0,0,0,1.13.08c.25,0,.35.12.35.22s-.18.23-.43.23c-1.45,0-2.92-.08-3.55-.08s-2,.08-2.87.08c-.27,0-.42-.08-.42-.23s.07-.22.35-.22a3.07,3.07,0,0,0,.77-.08c.45-.1.57-.5.65-1.12.1-.9.1-2.57.1-4.52Z" transform="translate(-179.94 -401.59)"/><path class="cls-1" d="M480.08,516.48c0-3.22,0-3.82,0-4.5s-.25-1-.95-1.15a4.05,4.05,0,0,0-.87-.07c-.23,0-.38-.08-.38-.23s.18-.2.5-.2c1.15,0,2.55.05,3,.05.75,0,2.75-.05,3.42-.05a7.78,7.78,0,0,1,4.18.9,3.74,3.74,0,0,1,1.55,2.93c0,1.57-.9,3-3.05,4.69,1.95,2.4,3.5,4.33,4.82,5.65a4.11,4.11,0,0,0,2.35,1.4,2,2,0,0,0,.52.05.25.25,0,0,1,.28.22c0,.18-.15.23-.43.23h-2.1a4.71,4.71,0,0,1-2.39-.43c-.95-.47-1.78-1.47-3-3.12-.88-1.15-1.8-2.57-2.08-2.9a.52.52,0,0,0-.4-.15l-2,0c-.1,0-.17,0-.17.18v.3c0,2,0,3.62.12,4.52.07.62.17,1,.85,1.12a8.32,8.32,0,0,0,1.07.08.25.25,0,0,1,.28.22c0,.15-.18.23-.45.23-1.28,0-3.1-.08-3.42-.08s-1.83.08-2.7.08c-.28,0-.43-.08-.43-.23s.08-.22.35-.22a3.22,3.22,0,0,0,.78-.08c.45-.1.57-.5.65-1.12.1-.9.1-2.57.1-4.52Zm2.8,1.65c0,.22.05.3.19.37a6.09,6.09,0,0,0,1.68.2,2.2,2.2,0,0,0,1.55-.35,3.59,3.59,0,0,0,1.42-3.14c0-3-2.05-3.78-3.35-3.78a7.87,7.87,0,0,0-1.3.08c-.14.05-.19.12-.19.3Z" transform="translate(-179.94 -401.59)"/><path class="cls-1" d="M500.66,521c-.12,0-.15,0-.2.15l-1.17,2.87a3.74,3.74,0,0,0-.33,1.3c0,.37.2.6.88.6h.32c.27,0,.32.1.32.22s-.12.23-.35.23c-.72,0-1.74-.08-2.44-.08-.23,0-1.4.08-2.55.08-.28,0-.4,0-.4-.23s.07-.22.25-.22l.65,0c1-.15,1.37-.79,1.82-1.87l5.75-13.27c.25-.6.42-.85.65-.85s.42.2.65.68c.52,1.17,4.2,9.77,5.59,13,.86,1.93,1.48,2.2,1.88,2.27a5.25,5.25,0,0,0,.82.08c.2,0,.3.07.3.22s-.12.23-1,.23-2.37,0-4.22,0c-.4,0-.65,0-.65-.18s.05-.2.28-.22a.33.33,0,0,0,.2-.47l-1.7-4.3a.21.21,0,0,0-.23-.15Zm4.7-1.18c.1,0,.12-.05.1-.12l-2.08-5.32c0-.08-.05-.2-.09-.2s-.11.12-.13.2L501,519.7c-.05.1,0,.15.07.15Z" transform="translate(-179.94 -401.59)"/><path class="cls-1" d="M519.3,511.63l-3.28.08c-1.27,0-1.8.17-2.12.65a2.4,2.4,0,0,0-.38.72c0,.18-.1.28-.25.28s-.2-.13-.2-.35.43-2.4.48-2.58.12-.4.25-.4.4.18,1,.25a19.35,19.35,0,0,0,2.2.1h8.92a9.53,9.53,0,0,0,1.49-.1c.35,0,.53-.1.6-.1s.18.13.18.45,0,2,0,2.58c0,.22-.08.35-.2.35s-.23-.1-.25-.43l0-.22c0-.55-.63-1.2-2.6-1.23l-2.78-.05v8.6c0,1.95,0,3.62.13,4.55.07.59.2,1,.85,1.09a8.2,8.2,0,0,0,1.12.08c.25,0,.35.12.35.22s-.17.23-.42.23c-1.45,0-2.93-.08-3.55-.08s-2,.08-2.87.08c-.28,0-.43-.08-.43-.23s.08-.22.35-.22a3.16,3.16,0,0,0,.78-.08c.45-.1.57-.5.65-1.12.1-.9.1-2.57.1-4.52Z" transform="translate(-179.94 -401.59)"/><path class="cls-1" d="M534.68,516.48c0-3.22,0-3.82,0-4.5s-.25-1-.95-1.15a4.16,4.16,0,0,0-.88-.07c-.22,0-.37-.08-.37-.23s.17-.2.5-.2c1.15,0,2.55.05,3.17.05s5.57,0,6,0,.75-.1.92-.12a2.13,2.13,0,0,1,.35-.1c.13,0,.15.1.15.2a9.93,9.93,0,0,0-.17,1.37c0,.23-.08,1.15-.13,1.4s-.07.35-.25.35-.17-.1-.17-.27a2.12,2.12,0,0,0-.15-.78c-.18-.37-.35-.67-1.45-.77-.38-.05-3-.1-3.45-.1-.1,0-.15.07-.15.2V517c0,.13,0,.23.15.23.5,0,3.35,0,3.85-.05a1.83,1.83,0,0,0,1-.32c.17-.16.25-.28.35-.28s.17.1.17.23-.05.47-.17,1.54c0,.43-.1,1.28-.1,1.43s0,.47-.23.47-.2-.07-.2-.17,0-.5-.07-.78-.4-.75-1.23-.82c-.4-.05-2.9-.1-3.45-.1-.1,0-.12.1-.12.22v1.7c0,.73,0,2.53,0,3.15,0,1.45.72,1.77,3,1.77a6,6,0,0,0,2.08-.27c.55-.25.8-.7,1-1.57,0-.23.1-.33.25-.33s.2.27.2.5a14.94,14.94,0,0,1-.3,2.35c-.15.55-.35.55-1.18.55-1.65,0-3,0-4-.08s-1.9,0-2.55,0c-.25,0-.73,0-1.25,0s-1.08,0-1.53,0c-.27,0-.42-.08-.42-.23s.07-.22.35-.22a3.19,3.19,0,0,0,.77-.08c.45-.1.58-.5.65-1.12.1-.9.1-2.57.1-4.52Z" transform="translate(-179.94 -401.59)"/><path class="cls-1" d="M565,525c0,.58,0,.6-.27.75a13.17,13.17,0,0,1-5.37.95c-5.4,0-10.17-2.44-10.17-8.32a7.84,7.84,0,0,1,3.85-6.94,11,11,0,0,1,5.92-1.38,25.14,25.14,0,0,1,3.9.35,17.09,17.09,0,0,0,1.74.23c.25,0,.3.1.3.25a28.73,28.73,0,0,0-.15,3.5c0,.32-.12.47-.3.47s-.2-.1-.22-.27a2.85,2.85,0,0,0-.75-1.75,6.79,6.79,0,0,0-4.77-1.63,6.19,6.19,0,0,0-4.25,1.25c-1.22,1-2,2.57-2,5.17,0,4.58,2.94,7.9,7.64,7.9a3.51,3.51,0,0,0,1.55-.23.7.7,0,0,0,.43-.74v-1.95c0-1.05,0-1.85,0-2.5s-.25-1-1-1.15a3.89,3.89,0,0,0-.85-.08c-.2,0-.35-.1-.35-.22s.18-.2.48-.2c1.15,0,2.72.05,3.37.05s1.85-.05,2.57-.05c.3,0,.45,0,.45.2a.25.25,0,0,1-.27.22,3,3,0,0,0-.6.08c-.6.1-.83.4-.85,1.15s0,1.5,0,2.55Z" transform="translate(-179.94 -401.59)"/><path class="cls-1" d="M576,520.88a4.27,4.27,0,0,0-.5-2.23c-.15-.32-3.15-5-3.93-6.12a4.91,4.91,0,0,0-1.42-1.5,2.19,2.19,0,0,0-.92-.27c-.18,0-.33-.08-.33-.23s.15-.2.43-.2,2,.05,2.75.05c.47,0,1.49-.05,2.49-.05.2,0,.33.05.33.2s-.15.18-.5.28c-.18.05-.3.15-.3.32a1.69,1.69,0,0,0,.27.73c.4.65,3.28,5.62,3.65,6.22.28-.5,3-5.05,3.27-5.7a2.73,2.73,0,0,0,.33-1.12c0-.2-.1-.4-.48-.48-.2,0-.4-.07-.4-.25s.13-.2.38-.2c.72,0,1.5.05,2.15.05l2.35-.05c.24,0,.4.05.4.18s-.18.25-.43.25a2.74,2.74,0,0,0-1,.25,2.93,2.93,0,0,0-1.15,1,72.13,72.13,0,0,0-4.27,6.79,4.91,4.91,0,0,0-.28,2.13v1.7c0,.34,0,1.22.06,2.12,0,.62.24,1,.89,1.12a8.51,8.51,0,0,0,1.1.08c.25,0,.38.12.38.22s-.18.23-.48.23c-1.37,0-2.84-.08-3.44-.08s-2,.08-2.85.08c-.3,0-.48,0-.48-.23s.1-.22.35-.22a3.4,3.4,0,0,0,.78-.08c.45-.1.62-.5.67-1.12.08-.9.08-1.78.08-2.12Z" transform="translate(-179.94 -401.59)"/><path class="cls-1" d="M601.2,524.37a8.2,8.2,0,0,1-.18-12.09c1.6-1.4,3.7-2.25,7-2.25a21.59,21.59,0,0,1,3.19.23c.83.12,1.55.27,2.2.35.25,0,.33.12.33.25s-.05.42-.1,1.17,0,1.88-.08,2.3-.1.53-.3.53-.22-.18-.22-.45a3,3,0,0,0-.85-2,6.26,6.26,0,0,0-4.25-1.25,5.94,5.94,0,0,0-4.15,1.2c-1.62,1.4-2,3.45-2,5.52a7.09,7.09,0,0,0,6.85,7.45c1.94,0,3-.15,3.89-1.12a3.36,3.36,0,0,0,.75-1.43c0-.32.1-.42.28-.42s.25.2.25.37a18.15,18.15,0,0,1-.48,2.82.75.75,0,0,1-.57.63,12.93,12.93,0,0,1-4,.47C605.75,526.67,603.2,526.05,601.2,524.37Z" transform="translate(-179.94 -401.59)"/><path class="cls-1" d="M618.56,518.35c0-3.62,2.55-8.32,9.22-8.32,5.55,0,9,3.08,9,8s-3.54,8.69-9.22,8.69C621.16,526.67,618.56,522.13,618.56,518.35Zm14.94.4c0-4.69-2.82-7.59-6.37-7.59-2.45,0-5.32,1.3-5.32,6.54,0,4.38,2.5,7.83,6.64,7.83C630,525.53,633.5,524.8,633.5,518.75Z" transform="translate(-179.94 -401.59)"/><path class="cls-1" d="M644.74,523.5c0,1.65.32,2.15.75,2.3a3.87,3.87,0,0,0,1.15.15c.25,0,.37.1.37.22s-.2.23-.5.23c-1.42,0-2.44-.08-2.84-.08-.21,0-1.25.08-2.38.08-.3,0-.5,0-.5-.23s.15-.22.35-.22a4.85,4.85,0,0,0,1-.1c.58-.15.65-.72.67-2.57l.21-12.6c0-.42.14-.72.37-.72s.58.32,1,.7,3.57,3.65,6.77,6.77c1.5,1.47,4.42,4.47,4.75,4.77h.1l-.23-9.44c0-1.3-.22-1.68-.75-1.88a3.82,3.82,0,0,0-1.15-.12c-.27,0-.35-.1-.35-.23s.23-.2.55-.2c1.15,0,2.33.05,2.8.05.25,0,1.08-.05,2.15-.05.3,0,.5,0,.5.2s-.12.23-.37.23a2.42,2.42,0,0,0-.68.07c-.6.18-.77.55-.8,1.75L657.38,526c0,.48-.17.68-.35.68a1.35,1.35,0,0,1-.9-.45c-1.37-1.28-4.12-3.9-6.42-6.12s-4.72-4.87-5.15-5.25h-.07Z" transform="translate(-179.94 -401.59)"/><path class="cls-1" d="M665.67,526.12c-.35-.15-.42-.25-.42-.72,0-1.15.1-2.47.12-2.82s.1-.55.28-.55.22.2.22.35a4.22,4.22,0,0,0,.2,1.1c.48,1.57,2.13,2.09,3.5,2.09a2.76,2.76,0,0,0,3-2.69c0-.93-.23-1.85-2.18-3l-1.27-.75c-2.6-1.53-3.45-3-3.45-4.82,0-2.6,2.5-4.28,5.55-4.28a13,13,0,0,1,3.12.35c.2.05.3.13.3.28s-.07.87-.07,2.55c0,.45-.1.67-.28.67s-.22-.12-.22-.37a2.38,2.38,0,0,0-.58-1.4,2.94,2.94,0,0,0-2.45-1c-1.57,0-3,.82-3,2.27,0,1,.35,1.7,2.33,2.8l.9.5c2.9,1.6,3.8,3.22,3.8,5.15a4.54,4.54,0,0,1-2.2,4,6.42,6.42,0,0,1-3.68.87A9.25,9.25,0,0,1,665.67,526.12Z" transform="translate(-179.94 -401.59)"/><path class="cls-1" d="M681.91,516.48c0-3.22,0-3.82,0-4.5s-.25-1-1-1.15a4,4,0,0,0-.85-.07c-.25,0-.37-.08-.37-.23s.15-.2.47-.2c1.18,0,2.65.05,3.3.05s2-.05,2.82-.05c.33,0,.48.05.48.2s-.13.23-.35.23a3,3,0,0,0-.65.07c-.58.1-.75.4-.8,1.15s-.05,1.28-.05,4.5v3c0,3.1.6,4.3,1.67,5.15a4.28,4.28,0,0,0,2.78.85,4.16,4.16,0,0,0,3-1.13c1.22-1.14,1.27-3,1.27-5.17v-2.67c0-3.22,0-3.82-.05-4.5s-.23-1-.93-1.15a3.68,3.68,0,0,0-.79-.07c-.26,0-.38-.08-.38-.23s.15-.2.45-.2c1.13,0,2.6.05,2.62.05.25,0,1.73-.05,2.58-.05.3,0,.45.05.45.2s-.13.23-.38.23a3.07,3.07,0,0,0-.65.07c-.6.1-.75.4-.8,1.15s-.05,1.28-.05,4.5v2.27c0,2.38-.25,4.87-2.1,6.4a6.82,6.82,0,0,1-4.64,1.52,7.62,7.62,0,0,1-5-1.45c-1.12-1-2-2.54-2-5.62Z" transform="translate(-179.94 -401.59)"/><path class="cls-1" d="M706.79,520.23c0,2.72,0,4.07.47,4.47s1.22.45,2.92.45c1.18,0,2,0,2.58-.6a2.65,2.65,0,0,0,.55-1.27c0-.2.07-.33.25-.33s.2.23.2.48a15.64,15.64,0,0,1-.33,2.44c-.15.48-.25.58-1.4.58-1.57,0-2.85,0-3.95-.08s-2,0-2.92,0c-.25,0-.72,0-1.25,0s-1.07,0-1.52,0c-.28,0-.42-.08-.42-.23s.07-.22.35-.22a3.19,3.19,0,0,0,.77-.08c.45-.1.57-.5.65-1.12.1-.9.1-2.57.1-4.52v-3.75c0-3.22,0-3.82,0-4.5s-.25-1-.95-1.15a2.92,2.92,0,0,0-.72-.07c-.25,0-.38-.08-.38-.23s.15-.2.48-.2c1,0,2.42.05,3,.05s2.33-.05,3.17-.05c.33,0,.48.05.48.2s-.13.23-.4.23a4.88,4.88,0,0,0-.85.07c-.6.1-.77.4-.82,1.15s-.05,1.28-.05,4.5Z" transform="translate(-179.94 -401.59)"/><path class="cls-1" d="M721.85,511.63l-3.27.08c-1.28,0-1.8.17-2.13.65a2.56,2.56,0,0,0-.37.72c-.05.18-.1.28-.25.28s-.2-.13-.2-.35.42-2.4.47-2.58.13-.4.25-.4.4.18.95.25a19.46,19.46,0,0,0,2.2.1h8.92a9.79,9.79,0,0,0,1.5-.1c.35,0,.53-.1.6-.1s.17.13.17.45-.05,2-.05,2.58c0,.22-.07.35-.19.35s-.23-.1-.25-.43l0-.22c0-.55-.62-1.2-2.6-1.23l-2.77-.05v8.6c0,1.95,0,3.62.12,4.55.08.59.2,1,.85,1.09a8.23,8.23,0,0,0,1.13.08c.25,0,.35.12.35.22s-.18.23-.43.23c-1.45,0-2.92-.08-3.55-.08s-2,.08-2.87.08c-.27,0-.42-.08-.42-.23s.07-.22.35-.22a3,3,0,0,0,.77-.08c.45-.1.57-.5.65-1.12.1-.9.1-2.57.1-4.52Z" transform="translate(-179.94 -401.59)"/><path class="cls-1" d="M737.24,516.48c0-3.22,0-3.82,0-4.5s-.27-1-.75-1.12a2.62,2.62,0,0,0-.8-.1c-.23,0-.35-.05-.35-.25s.18-.18.53-.18c.82,0,2.32.05,2.94.05s2-.05,2.83-.05c.27,0,.45.05.45.18s-.13.25-.35.25a3,3,0,0,0-.65.07c-.6.1-.78.4-.83,1.15s-.05,1.28-.05,4.5v3.75c0,2,0,3.74.1,4.65.08.57.23.89.88,1a8.2,8.2,0,0,0,1.12.08c.25,0,.35.12.35.22s-.17.23-.42.23c-1.45,0-3-.08-3.55-.08s-2,.08-2.88.08c-.27,0-.42-.08-.42-.23s.07-.22.35-.22a3.13,3.13,0,0,0,.77-.08c.46-.1.58-.39.65-1,.11-.88.11-2.57.11-4.62Z" transform="translate(-179.94 -401.59)"/><path class="cls-1" d="M751.27,523.5c.05,1.65.33,2.15.75,2.3a4,4,0,0,0,1.16.15c.24,0,.37.1.37.22s-.2.23-.5.23c-1.43,0-2.45-.08-2.85-.08-.2,0-1.25.08-2.37.08-.3,0-.5,0-.5-.23s.15-.22.35-.22a4.85,4.85,0,0,0,1-.1c.57-.15.65-.72.67-2.57l.2-12.6c0-.42.15-.72.38-.72s.57.32,1,.7,3.57,3.65,6.77,6.77c1.5,1.47,4.42,4.47,4.74,4.77h.1l-.22-9.44c0-1.3-.23-1.68-.75-1.88a3.85,3.85,0,0,0-1.15-.12c-.27,0-.35-.1-.35-.23s.22-.2.55-.2c1.15,0,2.32.05,2.8.05.25,0,1.07-.05,2.15-.05.3,0,.5,0,.5.2s-.13.23-.38.23a2.35,2.35,0,0,0-.67.07c-.6.18-.78.55-.8,1.75L763.92,526c0,.48-.18.68-.35.68a1.31,1.31,0,0,1-.9-.45c-1.38-1.28-4.12-3.9-6.42-6.12s-4.72-4.87-5.15-5.25H751Z" transform="translate(-179.94 -401.59)"/><path class="cls-1" d="M786.57,525c0,.58,0,.6-.27.75a13.19,13.19,0,0,1-5.38.95c-5.39,0-10.16-2.44-10.16-8.32a7.86,7.86,0,0,1,3.84-6.94,11,11,0,0,1,5.93-1.38,25,25,0,0,1,3.89.35c.45.08,1.23.2,1.75.23.25,0,.3.1.3.25a28.73,28.73,0,0,0-.15,3.5c0,.32-.12.47-.3.47s-.2-.1-.22-.27a2.85,2.85,0,0,0-.75-1.75,6.8,6.8,0,0,0-4.78-1.63,6.18,6.18,0,0,0-4.24,1.25c-1.23,1-2,2.57-2,5.17,0,4.58,3,7.9,7.65,7.9a3.55,3.55,0,0,0,1.55-.23.69.69,0,0,0,.42-.74v-1.95c0-1.05,0-1.85,0-2.5s-.25-1-1-1.15a4,4,0,0,0-.85-.08c-.2,0-.35-.1-.35-.22s.17-.2.47-.2c1.15,0,2.73.05,3.38.05s1.85-.05,2.57-.05c.3,0,.45,0,.45.2a.25.25,0,0,1-.28.22,2.92,2.92,0,0,0-.59.08c-.6.1-.83.4-.85,1.15s0,1.5,0,2.55Z" transform="translate(-179.94 -401.59)"/><path class="cls-2" d="M405.47,458.92h7.12v34.36h21.46v6.47H405.47Z" transform="translate(-179.94 -401.59)"/><path class="cls-2" d="M452,458.92v40.83H444.9V458.92Z" transform="translate(-179.94 -401.59)"/><path class="cls-2" d="M498.94,496.54a24.71,24.71,0,0,1-4,2A23.63,23.63,0,0,1,490.4,500a25.25,25.25,0,0,1-5.14.5,22.68,22.68,0,0,1-8.69-1.6,19.41,19.41,0,0,1-11-11.11,22.4,22.4,0,0,1-1.52-8.34,21.55,21.55,0,0,1,1.55-8.17,20.4,20.4,0,0,1,11-11.32,21.1,21.1,0,0,1,8.49-1.69,28.92,28.92,0,0,1,4.87.38,22,22,0,0,1,4.05,1.08,20.6,20.6,0,0,1,3.53,1.72,26.15,26.15,0,0,1,3.24,2.36l-4.55,5.43a26.35,26.35,0,0,0-2.39-1.81,15.49,15.49,0,0,0-2.57-1.37,16.45,16.45,0,0,0-2.95-.88,18.3,18.3,0,0,0-3.53-.32,12.14,12.14,0,0,0-5.22,1.14,12.9,12.9,0,0,0-4.19,3.13,14.77,14.77,0,0,0-2.8,4.62,15.15,15.15,0,0,0-1,5.61,16.54,16.54,0,0,0,1,5.84,13.55,13.55,0,0,0,2.83,4.65,13.19,13.19,0,0,0,4.37,3.07A14.06,14.06,0,0,0,485.5,494a17.24,17.24,0,0,0,5.45-.85,15.33,15.33,0,0,0,4.4-2.26v-7.68H484.91V477h17.38v17.14A28.38,28.38,0,0,1,498.94,496.54Z" transform="translate(-179.94 -401.59)"/><path class="cls-2" d="M521.66,482.55v17.2h-7.12V458.92h7.12v17h19.6v-17h7.11v40.83h-7.11v-17.2Z" transform="translate(-179.94 -401.59)"/><path class="cls-2" d="M579.05,499.75h-7.23V465.57h-13v-6.65H592v6.65h-13Z" transform="translate(-179.94 -401.59)"/><path class="cls-2" d="M609.61,482.55v17.2H602.5V458.92h7.11v17h19.6v-17h7.12v40.83h-7.12v-17.2Z" transform="translate(-179.94 -401.59)"/><path class="cls-2" d="M689.06,487.44a20.52,20.52,0,0,1-4.43,6.74,21.28,21.28,0,0,1-15.4,6.27,21.85,21.85,0,0,1-8.64-1.66,20.3,20.3,0,0,1-11.08-11.23,22,22,0,0,1,0-16.33,20.49,20.49,0,0,1,4.44-6.74,21.31,21.31,0,0,1,6.76-4.58,21.64,21.64,0,0,1,8.63-1.69,22,22,0,0,1,8.64,1.66,20.3,20.3,0,0,1,11.08,11.23,22,22,0,0,1,0,16.33Zm-7-13.67a14.36,14.36,0,0,0-2.86-4.64,13.72,13.72,0,0,0-4.4-3.15,14.08,14.08,0,0,0-11.17,0,13.24,13.24,0,0,0-4.35,3.09,14.21,14.21,0,0,0-2.83,4.61,16,16,0,0,0,0,11.26,14.31,14.31,0,0,0,2.86,4.63,13.63,13.63,0,0,0,19.92.09,14.28,14.28,0,0,0,2.83-4.61,16,16,0,0,0,0-11.25Z" transform="translate(-179.94 -401.59)"/><path class="cls-2" d="M736.54,482.08a23.22,23.22,0,0,1-1.26,8,15.52,15.52,0,0,1-3.53,5.74,14.19,14.19,0,0,1-5.51,3.45,22,22,0,0,1-7.26,1.13,21.57,21.57,0,0,1-7.17-1.13,14.4,14.4,0,0,1-5.48-3.42,15,15,0,0,1-3.5-5.63,22.53,22.53,0,0,1-1.23-7.78V458.92h7.12v23.22c0,3.81.92,6.7,2.75,8.69a11.35,11.35,0,0,0,15.19.11q2.76-2.85,2.76-8.51V458.92h7.12Z" transform="translate(-179.94 -401.59)"/><path class="cls-2" d="M755.73,471.7a4.33,4.33,0,0,0,1.49,1.63,11.73,11.73,0,0,0,3,1.4c1.27.43,2.88.87,4.82,1.34a47.2,47.2,0,0,1,5.71,1.81,14.32,14.32,0,0,1,4.12,2.42,9.49,9.49,0,0,1,2.48,3.32,10.8,10.8,0,0,1,.85,4.47,12,12,0,0,1-1.07,5.19,10.93,10.93,0,0,1-3,3.85,13.21,13.21,0,0,1-4.58,2.39,20.31,20.31,0,0,1-5.89.81,25.73,25.73,0,0,1-9-1.6,24.61,24.61,0,0,1-8-4.93l4.31-5.13a25.5,25.5,0,0,0,6,3.94,16.62,16.62,0,0,0,6.89,1.37,8.9,8.9,0,0,0,5.27-1.4,4.45,4.45,0,0,0,2-3.79,5,5,0,0,0-.38-2,4,4,0,0,0-1.41-1.6,11.77,11.77,0,0,0-2.8-1.37,45.27,45.27,0,0,0-4.65-1.34A49.85,49.85,0,0,1,756,480.8a14.8,14.8,0,0,1-4.27-2.34,9.2,9.2,0,0,1-2.63-3.38,11.52,11.52,0,0,1-.91-4.84,11.21,11.21,0,0,1,1-4.87,11.43,11.43,0,0,1,2.87-3.77,12.72,12.72,0,0,1,4.38-2.42,17.87,17.87,0,0,1,5.6-.84,23.47,23.47,0,0,1,8.07,1.31,24.11,24.11,0,0,1,6.74,3.82l-3.85,5.43a25.58,25.58,0,0,0-5.54-3.13A15.19,15.19,0,0,0,762,464.7a7.57,7.57,0,0,0-4.9,1.42,4.35,4.35,0,0,0-1.75,3.48A4.86,4.86,0,0,0,755.73,471.7Z" transform="translate(-179.94 -401.59)"/><path class="cls-2" d="M819.77,465.4h-23.1v10.5h20.48v6.47H796.67v10.91h23.39v6.47h-30.5V458.92h30.21Z" transform="translate(-179.94 -401.59)"/><polygon class="cls-2" points="108.86 87.61 88.71 87.61 85.73 80.75 111.84 80.75 108.86 87.61"/><rect class="cls-2" x="89.07" y="66" width="19.42" height="3.3"/><polygon class="cls-2" points="99.87 64.91 98.79 43.17 97.7 64.91 99.87 64.91"/><path class="cls-2" d="M288.19,489.07H269.25l-3.56,53.14a91.56,91.56,0,0,1,13.67,3.93,85.29,85.29,0,0,0,12.9,3.69Zm-12.74,10.51a3.27,3.27,0,0,1,6.54,0v5.85h-6.54Zm7.68,35.23h-8.81v-7.88a4.41,4.41,0,0,1,8.81,0Z" transform="translate(-179.94 -401.59)"/><path class="cls-2" d="M287.32,468.24v-3.18c0-3.75-3.85-6.79-8.6-6.79h0c-4.74,0-8.59,3-8.59,6.79v3.18Z" transform="translate(-179.94 -401.59)"/><path class="cls-2" d="M270.56,470.46v12h16.33v-12Zm4.68,10.84h-3.33v-8a1.67,1.67,0,1,1,3.33,0Zm5.15,0h-3.33v-8a1.67,1.67,0,1,1,3.33,0Zm5.15,0h-3.33v-8a1.67,1.67,0,1,1,3.33,0Z" transform="translate(-179.94 -401.59)"/><path class="cls-2" d="M293.64,548.11c-1.2.45-2.39.86-3.58,1.25a94.29,94.29,0,0,0,21.33,2.39c1.13,0,2.24,0,3.33,0l3.12-.1a66.6,66.6,0,0,0,9.78-9.21A90.46,90.46,0,0,0,293.64,548.11Z" transform="translate(-179.94 -401.59)"/><path class="cls-2" d="M278.62,548.11a92.4,92.4,0,0,0-48.79-4.24,65.5,65.5,0,0,0,85,9.93A93.94,93.94,0,0,1,278.62,548.11Z" transform="translate(-179.94 -401.59)"/><polyline class="cls-2" points="98.79 0 95.04 32.66 102.53 32.66 98.79 0"/><polygon class="cls-2" points="102.53 164.16 98.79 196.82 95.04 164.16 102.53 164.16"/><polygon class="cls-2" points="164.91 101.45 197.57 97.7 164.91 93.96 164.91 101.45"/><polygon class="cls-2" points="32.67 101.45 0 97.7 32.67 93.96 32.67 101.45"/><path class="cls-2" d="M278.72,576.71a77.42,77.42,0,1,1,77.42-77.42A77.51,77.51,0,0,1,278.72,576.71Zm0-150.63a73.22,73.22,0,1,0,73.22,73.21A73.29,73.29,0,0,0,278.72,426.08Z" transform="translate(-179.94 -401.59)"/><path class="cls-2" d="M278.72,566.68a67.39,67.39,0,1,1,67.39-67.39A67.46,67.46,0,0,1,278.72,566.68Zm0-132.24a64.86,64.86,0,1,0,64.86,64.85A64.93,64.93,0,0,0,278.72,434.44Z" transform="translate(-179.94 -401.59)"/><rect class="cls-2" x="228.99" y="443.6" width="1.68" height="9.2" transform="translate(-426.05 -118.27) rotate(-43.74)"/><rect class="cls-2" x="326.78" y="545.79" width="1.68" height="9.2" transform="translate(-469.51 -22.48) rotate(-43.73)"/><rect class="cls-2" x="325.22" y="449.56" width="9.2" height="1.68" transform="translate(-399.78 -48.73) rotate(-43.72)"/><rect class="cls-2" x="223.03" y="547.35" width="9.2" height="1.68" transform="translate(-495.7 -92.24) rotate(-43.72)"/><path class="cls-1" d="M288.43,472.67l1.9-.37c1.22-.22,2.94-.58,5-.93s4.51-.8,7.12-1.22,5.39-.86,8.19-1.29,5.58-.83,8.21-1.19,5.08-.65,7.18-.93,3.86-.45,5.09-.6l1.94-.2-1.9.38c-1.21.22-2.94.57-5,.93s-4.51.8-7.12,1.22-5.4.86-8.19,1.29-5.59.83-8.21,1.18-5.08.66-7.18.94-3.87.44-5.1.59Z" transform="translate(-179.94 -401.59)"/><path class="cls-1" d="M333.09,486.62l-1.94-.2c-1.23-.15-3-.33-5.09-.6s-4.56-.57-7.18-.93-5.42-.77-8.21-1.18-5.58-.86-8.19-1.29-5-.87-7.12-1.22-3.81-.72-5-.93l-1.9-.38,1.94.2c1.23.15,3,.32,5.1.59s4.56.57,7.18.94,5.42.77,8.21,1.18,5.58.86,8.19,1.29,5,.87,7.12,1.22,3.81.71,5,.93Z" transform="translate(-179.94 -401.59)"/><path class="cls-1" d="M290.15,476.28l1.46-.09c.93,0,2.25-.13,3.84-.17s3.44-.11,5.43-.14,4.1-.05,6.22-.06,4.23,0,6.22.06,3.83.1,5.43.14,2.91.13,3.83.17l1.46.09-1.46.09c-.92,0-2.25.13-3.83.17s-3.45.12-5.43.15-4.1,0-6.22.05-4.24,0-6.22-.06-3.84-.1-5.43-.14-2.91-.13-3.84-.17Z" transform="translate(-179.94 -401.59)"/><path class="cls-1" d="M269.2,472.67l-1.9-.37c-1.22-.22-2.94-.58-5-.93s-4.51-.8-7.12-1.22-5.39-.86-8.18-1.29-5.59-.83-8.21-1.19-5.09-.65-7.19-.93-3.86-.45-5.09-.6l-1.94-.2,1.9.38c1.22.22,2.94.57,5,.93s4.51.8,7.12,1.22,5.4.86,8.19,1.29,5.59.83,8.21,1.18,5.08.66,7.18.94,3.87.44,5.1.59Z" transform="translate(-179.94 -401.59)"/><path class="cls-1" d="M224.54,486.62l1.94-.2c1.23-.15,3-.33,5.09-.6s4.56-.57,7.19-.93,5.41-.77,8.21-1.18,5.57-.86,8.18-1.29,5-.87,7.12-1.22,3.81-.72,5-.93l1.9-.38-1.94.2c-1.23.15-3,.32-5.1.59s-4.56.57-7.18.94-5.42.77-8.21,1.18-5.58.86-8.19,1.29-5,.87-7.12,1.22-3.8.71-5,.93Z" transform="translate(-179.94 -401.59)"/><path class="cls-1" d="M267.48,476.28l-1.46-.09c-.93,0-2.25-.13-3.84-.17s-3.44-.11-5.43-.14-4.1-.05-6.22-.06-4.23,0-6.22.06-3.83.1-5.42.14-2.91.13-3.84.17l-1.46.09,1.46.09c.93,0,2.25.13,3.84.17s3.44.12,5.42.15,4.11,0,6.22.05,4.24,0,6.22-.06,3.84-.1,5.43-.14,2.91-.13,3.84-.17Z" transform="translate(-179.94 -401.59)"/></svg>